<svg width="64" height="64" viewBox="0 0 64 64" fill="none" xmlns="http://www.w3.org/2000/svg">
<path d="M32 55.6999L31.1 54.5999C30.5 53.7999 15.2 35.8999 15.2 25.1999C15.2 15.8999 22.8 8.3999 32 8.3999C41.2 8.3999 48.8 15.9999 48.8 25.1999C48.8 35.8999 33.4999 53.8999 32.8999 54.5999L32 55.6999ZM32 10.6999C24 10.6999 17.6 17.1999 17.6 25.0999C17.6 33.4999 28.7 47.7999 32 51.8999C35.3 47.7999 46.3999 33.5999 46.3999 25.0999C46.3999 17.1999 40 10.6999 32 10.6999Z" fill="#036141"/>
<path d="M31.9998 31.5999C28.4998 31.5999 25.5999 28.7 25.5999 25.2C25.5999 21.7 28.4998 18.7999 31.9998 18.7999C35.4998 18.7999 38.3998 21.7 38.3998 25.2C38.3998 28.7 35.4998 31.5999 31.9998 31.5999ZM31.9998 21.2C29.7998 21.2 27.9998 23 27.9998 25.2C27.9998 27.4 29.7998 29.2 31.9998 29.2C34.1998 29.2 35.9998 27.4 35.9998 25.2C35.9998 23 34.1998 21.2 31.9998 21.2Z" fill="#036141"/>
</svg>
